<?xml version="1.0" encoding="UTF-8"?>
<svg xmlns="http://www.w3.org/2000/svg" width="27.75mm" height="18.3mm" viewBox="0 0 27.75 18.3" version="1.1" data-asset-class="power-symbol-production" data-marker-dimension-mm="16.8" data-overall-artwork-width-mm="26.25" data-overall-artwork-height-mm="16.8" data-artboard-width-mm="27.75" data-artboard-height-mm="18.3" data-print-scale="100%">
<title>400A Power Drop</title>
<desc>Production symbol. Marker dimension 16.8 mm at 100%. Overall artwork 26.25 x 16.80 mm. Operational plate is integral and mechanically overlaps the east axis.</desc>
<g id="power-symbol-power-drop-400a" data-symbol-name="400A Power Drop" data-role="load" data-marker-dimension-mm="16.8" data-overall-artwork-width-mm="26.25" data-overall-artwork-height-mm="16.8" data-scale-percent="100">
<g id="power-symbol-power-drop-400a-registration-ticks" data-tick-geometry="load-2-32-168-198">
<line x1="9.15" y1="0.918" x2="9.15" y2="3.438" fill="none" stroke="#0A0A0A" stroke-width="0.3024" stroke-linecap="square"/>
<line x1="9.15" y1="14.862" x2="9.15" y2="17.382" fill="none" stroke="#0A0A0A" stroke-width="0.3024" stroke-linecap="square"/>
<line x1="0.918" y1="9.15" x2="3.438" y2="9.15" fill="none" stroke="#0A0A0A" stroke-width="0.3024" stroke-linecap="square"/>
<line x1="14.862" y1="9.15" x2="17.382" y2="9.15" fill="none" stroke="#0A0A0A" stroke-width="0.3024" stroke-linecap="square"/>
</g>
<circle id="power-symbol-power-drop-400a-load-outline" cx="9.15" cy="9.15" r="6.552" fill="none" stroke="#0A0A0A" stroke-width="0.3024"/>
<circle id="power-symbol-power-drop-400a-inner-ring" cx="9.15" cy="9.15" r="5.208" fill="none" stroke="#0A0A0A" stroke-width="0.2359"/>
<polygon id="power-symbol-power-drop-400a-accent-bolt" points="9.7086,5.4792 7.0752,9.3096 8.6712,9.3096 7.953,12.8208 11.2248,8.6712 9.2298,8.6712" fill="#00D26A" stroke="none" stroke-width="0"/>
<rect id="power-symbol-power-drop-400a-plate-lock-bridge" x="15.582" y="8.67" width="1.568" height="0.96" fill="#0A0A0A" stroke="none" stroke-width="0"/>
<rect id="power-symbol-power-drop-400a-integral-operational-plate" x="17" y="7.15" width="10" height="4" fill="#0A0A0A" stroke="none" stroke-width="0"/>
<g id="power-symbol-power-drop-400a-operational-id" data-operational-text="400A" data-rendering="outlined-vector-stencil">
<rect x="18.8217" y="7.8413" width="0.329" height="0.329" fill="#FFFFFF" stroke="none" stroke-width="0"/>
<rect x="18.4478" y="8.2152" width="0.329" height="0.329" fill="#FFFFFF" stroke="none" stroke-width="0"/>
<rect x="18.8217" y="8.2152" width="0.329" height="0.329" fill="#FFFFFF" stroke="none" stroke-width="0"/>
<rect x="18.0739" y="8.5891" width="0.329" height="0.329" fill="#FFFFFF" stroke="none" stroke-width="0"/>
<rect x="18.8217" y="8.5891" width="0.329" height="0.329" fill="#FFFFFF" stroke="none" stroke-width="0"/>
<rect x="17.7" y="8.963" width="0.329" height="0.329" fill="#FFFFFF" stroke="none" stroke-width="0"/>
<rect x="18.8217" y="8.963" width="0.329" height="0.329" fill="#FFFFFF" stroke="none" stroke-width="0"/>
<rect x="17.7" y="9.337" width="0.329" height="0.329" fill="#FFFFFF" stroke="none" stroke-width="0"/>
<rect x="18.0739" y="9.337" width="0.329" height="0.329" fill="#FFFFFF" stroke="none" stroke-width="0"/>
<rect x="18.4478" y="9.337" width="0.329" height="0.329" fill="#FFFFFF" stroke="none" stroke-width="0"/>
<rect x="18.8217" y="9.337" width="0.329" height="0.329" fill="#FFFFFF" stroke="none" stroke-width="0"/>
<rect x="19.1957" y="9.337" width="0.329" height="0.329" fill="#FFFFFF" stroke="none" stroke-width="0"/>
<rect x="18.8217" y="9.7109" width="0.329" height="0.329" fill="#FFFFFF" stroke="none" stroke-width="0"/>
<rect x="18.8217" y="10.0848" width="0.329" height="0.329" fill="#FFFFFF" stroke="none" stroke-width="0"/>
<rect x="20.3174" y="7.8413" width="0.329" height="0.329" fill="#FFFFFF" stroke="none" stroke-width="0"/>
<rect x="20.6913" y="7.8413" width="0.329" height="0.329" fill="#FFFFFF" stroke="none" stroke-width="0"/>
<rect x="21.0652" y="7.8413" width="0.329" height="0.329" fill="#FFFFFF" stroke="none" stroke-width="0"/>
<rect x="19.9435" y="8.2152" width="0.329" height="0.329" fill="#FFFFFF" stroke="none" stroke-width="0"/>
<rect x="21.4391" y="8.2152" width="0.329" height="0.329" fill="#FFFFFF" stroke="none" stroke-width="0"/>
<rect x="19.9435" y="8.5891" width="0.329" height="0.329" fill="#FFFFFF" stroke="none" stroke-width="0"/>
<rect x="21.0652" y="8.5891" width="0.329" height="0.329" fill="#FFFFFF" stroke="none" stroke-width="0"/>
<rect x="21.4391" y="8.5891" width="0.329" height="0.329" fill="#FFFFFF" stroke="none" stroke-width="0"/>
<rect x="19.9435" y="8.963" width="0.329" height="0.329" fill="#FFFFFF" stroke="none" stroke-width="0"/>
<rect x="20.6913" y="8.963" width="0.329" height="0.329" fill="#FFFFFF" stroke="none" stroke-width="0"/>
<rect x="21.4391" y="8.963" width="0.329" height="0.329" fill="#FFFFFF" stroke="none" stroke-width="0"/>
<rect x="19.9435" y="9.337" width="0.329" height="0.329" fill="#FFFFFF" stroke="none" stroke-width="0"/>
<rect x="20.3174" y="9.337" width="0.329" height="0.329" fill="#FFFFFF" stroke="none" stroke-width="0"/>
<rect x="21.4391" y="9.337" width="0.329" height="0.329" fill="#FFFFFF" stroke="none" stroke-width="0"/>
<rect x="19.9435" y="9.7109" width="0.329" height="0.329" fill="#FFFFFF" stroke="none" stroke-width="0"/>
<rect x="21.4391" y="9.7109" width="0.329" height="0.329" fill="#FFFFFF" stroke="none" stroke-width="0"/>
<rect x="20.3174" y="10.0848" width="0.329" height="0.329" fill="#FFFFFF" stroke="none" stroke-width="0"/>
<rect x="20.6913" y="10.0848" width="0.329" height="0.329" fill="#FFFFFF" stroke="none" stroke-width="0"/>
<rect x="21.0652" y="10.0848" width="0.329" height="0.329" fill="#FFFFFF" stroke="none" stroke-width="0"/>
<rect x="22.5609" y="7.8413" width="0.329" height="0.329" fill="#FFFFFF" stroke="none" stroke-width="0"/>
<rect x="22.9348" y="7.8413" width="0.329" height="0.329" fill="#FFFFFF" stroke="none" stroke-width="0"/>
<rect x="23.3087" y="7.8413" width="0.329" height="0.329" fill="#FFFFFF" stroke="none" stroke-width="0"/>
<rect x="22.187" y="8.2152" width="0.329" height="0.329" fill="#FFFFFF" stroke="none" stroke-width="0"/>
<rect x="23.6826" y="8.2152" width="0.329" height="0.329" fill="#FFFFFF" stroke="none" stroke-width="0"/>
<rect x="22.187" y="8.5891" width="0.329" height="0.329" fill="#FFFFFF" stroke="none" stroke-width="0"/>
<rect x="23.3087" y="8.5891" width="0.329" height="0.329" fill="#FFFFFF" stroke="none" stroke-width="0"/>
<rect x="23.6826" y="8.5891" width="0.329" height="0.329" fill="#FFFFFF" stroke="none" stroke-width="0"/>
<rect x="22.187" y="8.963" width="0.329" height="0.329" fill="#FFFFFF" stroke="none" stroke-width="0"/>
<rect x="22.9348" y="8.963" width="0.329" height="0.329" fill="#FFFFFF" stroke="none" stroke-width="0"/>
<rect x="23.6826" y="8.963" width="0.329" height="0.329" fill="#FFFFFF" stroke="none" stroke-width="0"/>
<rect x="22.187" y="9.337" width="0.329" height="0.329" fill="#FFFFFF" stroke="none" stroke-width="0"/>
<rect x="22.5609" y="9.337" width="0.329" height="0.329" fill="#FFFFFF" stroke="none" stroke-width="0"/>
<rect x="23.6826" y="9.337" width="0.329" height="0.329" fill="#FFFFFF" stroke="none" stroke-width="0"/>
<rect x="22.187" y="9.7109" width="0.329" height="0.329" fill="#FFFFFF" stroke="none" stroke-width="0"/>
<rect x="23.6826" y="9.7109" width="0.329" height="0.329" fill="#FFFFFF" stroke="none" stroke-width="0"/>
<rect x="22.5609" y="10.0848" width="0.329" height="0.329" fill="#FFFFFF" stroke="none" stroke-width="0"/>
<rect x="22.9348" y="10.0848" width="0.329" height="0.329" fill="#FFFFFF" stroke="none" stroke-width="0"/>
<rect x="23.3087" y="10.0848" width="0.329" height="0.329" fill="#FFFFFF" stroke="none" stroke-width="0"/>
<rect x="24.8043" y="7.8413" width="0.329" height="0.329" fill="#FFFFFF" stroke="none" stroke-width="0"/>
<rect x="25.1783" y="7.8413" width="0.329" height="0.329" fill="#FFFFFF" stroke="none" stroke-width="0"/>
<rect x="25.5522" y="7.8413" width="0.329" height="0.329" fill="#FFFFFF" stroke="none" stroke-width="0"/>
<rect x="24.4304" y="8.2152" width="0.329" height="0.329" fill="#FFFFFF" stroke="none" stroke-width="0"/>
<rect x="25.9261" y="8.2152" width="0.329" height="0.329" fill="#FFFFFF" stroke="none" stroke-width="0"/>
<rect x="24.4304" y="8.5891" width="0.329" height="0.329" fill="#FFFFFF" stroke="none" stroke-width="0"/>
<rect x="25.9261" y="8.5891" width="0.329" height="0.329" fill="#FFFFFF" stroke="none" stroke-width="0"/>
<rect x="24.4304" y="8.963" width="0.329" height="0.329" fill="#FFFFFF" stroke="none" stroke-width="0"/>
<rect x="24.8043" y="8.963" width="0.329" height="0.329" fill="#FFFFFF" stroke="none" stroke-width="0"/>
<rect x="25.1783" y="8.963" width="0.329" height="0.329" fill="#FFFFFF" stroke="none" stroke-width="0"/>
<rect x="25.5522" y="8.963" width="0.329" height="0.329" fill="#FFFFFF" stroke="none" stroke-width="0"/>
<rect x="25.9261" y="8.963" width="0.329" height="0.329" fill="#FFFFFF" stroke="none" stroke-width="0"/>
<rect x="24.4304" y="9.337" width="0.329" height="0.329" fill="#FFFFFF" stroke="none" stroke-width="0"/>
<rect x="25.9261" y="9.337" width="0.329" height="0.329" fill="#FFFFFF" stroke="none" stroke-width="0"/>
<rect x="24.4304" y="9.7109" width="0.329" height="0.329" fill="#FFFFFF" stroke="none" stroke-width="0"/>
<rect x="25.9261" y="9.7109" width="0.329" height="0.329" fill="#FFFFFF" stroke="none" stroke-width="0"/>
<rect x="24.4304" y="10.0848" width="0.329" height="0.329" fill="#FFFFFF" stroke="none" stroke-width="0"/>
<rect x="25.9261" y="10.0848" width="0.329" height="0.329" fill="#FFFFFF" stroke="none" stroke-width="0"/>
</g>
</g>
</svg>
