<?xml version="1.0" encoding="UTF-8"?>
<svg xmlns="http://www.w3.org/2000/svg" width="19.25mm" height="8.3mm" viewBox="0 0 19.25 8.3" version="1.1" data-asset-class="power-symbol-production" data-marker-dimension-mm="6.8" data-overall-artwork-width-mm="17.75" data-overall-artwork-height-mm="6.8" data-artboard-width-mm="19.25" data-artboard-height-mm="8.3" data-print-scale="100%">
<title>16A Step-Down</title>
<desc>Production symbol. Marker dimension 6.8 mm at 100%. Overall artwork 17.75 x 6.80 mm. Operational plate is integral and mechanically overlaps the east axis.</desc>
<g id="power-symbol-step-down-16a" data-symbol-name="16A Step-Down" data-role="load" data-marker-dimension-mm="6.8" data-overall-artwork-width-mm="17.75" data-overall-artwork-height-mm="6.8" data-scale-percent="100">
<g id="power-symbol-step-down-16a-registration-ticks" data-tick-geometry="load-2-32-168-198">
<line x1="4.15" y1="0.818" x2="4.15" y2="1.838" fill="none" stroke="#0A0A0A" stroke-width="0.3" stroke-linecap="square"/>
<line x1="4.15" y1="6.462" x2="4.15" y2="7.482" fill="none" stroke="#0A0A0A" stroke-width="0.3" stroke-linecap="square"/>
<line x1="0.818" y1="4.15" x2="1.838" y2="4.15" fill="none" stroke="#0A0A0A" stroke-width="0.3" stroke-linecap="square"/>
<line x1="6.462" y1="4.15" x2="7.482" y2="4.15" fill="none" stroke="#0A0A0A" stroke-width="0.3" stroke-linecap="square"/>
</g>
<circle id="power-symbol-step-down-16a-load-outline" cx="4.15" cy="4.15" r="2.652" fill="none" stroke="#0A0A0A" stroke-width="0.3"/>
<polygon id="power-symbol-step-down-16a-accent-bolt" points="4.3761,2.6642 3.3102,4.2146 3.9562,4.2146 3.6655,5.6358 4.9898,3.9562 4.1823,3.9562" fill="#00D26A" stroke="none" stroke-width="0"/>
<rect id="power-symbol-step-down-16a-plate-lock-bridge" x="6.682" y="3.67" width="0.468" height="0.96" fill="#0A0A0A" stroke="none" stroke-width="0"/>
<rect id="power-symbol-step-down-16a-integral-operational-plate" x="7" y="2.15" width="11.5" height="4" fill="#0A0A0A" stroke="none" stroke-width="0"/>
<g id="power-symbol-step-down-16a-operational-id" data-operational-text="16A SD" data-rendering="outlined-vector-stencil">
<rect x="8.2771" y="3.14" width="0.2539" height="0.2539" fill="#FFFFFF" stroke="none" stroke-width="0"/>
<rect x="7.9886" y="3.4286" width="0.2539" height="0.2539" fill="#FFFFFF" stroke="none" stroke-width="0"/>
<rect x="8.2771" y="3.4286" width="0.2539" height="0.2539" fill="#FFFFFF" stroke="none" stroke-width="0"/>
<rect x="8.2771" y="3.7171" width="0.2539" height="0.2539" fill="#FFFFFF" stroke="none" stroke-width="0"/>
<rect x="8.2771" y="4.0057" width="0.2539" height="0.2539" fill="#FFFFFF" stroke="none" stroke-width="0"/>
<rect x="8.2771" y="4.2943" width="0.2539" height="0.2539" fill="#FFFFFF" stroke="none" stroke-width="0"/>
<rect x="8.2771" y="4.5829" width="0.2539" height="0.2539" fill="#FFFFFF" stroke="none" stroke-width="0"/>
<rect x="7.9886" y="4.8714" width="0.2539" height="0.2539" fill="#FFFFFF" stroke="none" stroke-width="0"/>
<rect x="8.2771" y="4.8714" width="0.2539" height="0.2539" fill="#FFFFFF" stroke="none" stroke-width="0"/>
<rect x="8.5657" y="4.8714" width="0.2539" height="0.2539" fill="#FFFFFF" stroke="none" stroke-width="0"/>
<rect x="9.72" y="3.14" width="0.2539" height="0.2539" fill="#FFFFFF" stroke="none" stroke-width="0"/>
<rect x="10.0086" y="3.14" width="0.2539" height="0.2539" fill="#FFFFFF" stroke="none" stroke-width="0"/>
<rect x="10.2971" y="3.14" width="0.2539" height="0.2539" fill="#FFFFFF" stroke="none" stroke-width="0"/>
<rect x="9.4314" y="3.4286" width="0.2539" height="0.2539" fill="#FFFFFF" stroke="none" stroke-width="0"/>
<rect x="9.4314" y="3.7171" width="0.2539" height="0.2539" fill="#FFFFFF" stroke="none" stroke-width="0"/>
<rect x="9.4314" y="4.0057" width="0.2539" height="0.2539" fill="#FFFFFF" stroke="none" stroke-width="0"/>
<rect x="9.72" y="4.0057" width="0.2539" height="0.2539" fill="#FFFFFF" stroke="none" stroke-width="0"/>
<rect x="10.0086" y="4.0057" width="0.2539" height="0.2539" fill="#FFFFFF" stroke="none" stroke-width="0"/>
<rect x="10.2971" y="4.0057" width="0.2539" height="0.2539" fill="#FFFFFF" stroke="none" stroke-width="0"/>
<rect x="9.4314" y="4.2943" width="0.2539" height="0.2539" fill="#FFFFFF" stroke="none" stroke-width="0"/>
<rect x="10.5857" y="4.2943" width="0.2539" height="0.2539" fill="#FFFFFF" stroke="none" stroke-width="0"/>
<rect x="9.4314" y="4.5829" width="0.2539" height="0.2539" fill="#FFFFFF" stroke="none" stroke-width="0"/>
<rect x="10.5857" y="4.5829" width="0.2539" height="0.2539" fill="#FFFFFF" stroke="none" stroke-width="0"/>
<rect x="9.72" y="4.8714" width="0.2539" height="0.2539" fill="#FFFFFF" stroke="none" stroke-width="0"/>
<rect x="10.0086" y="4.8714" width="0.2539" height="0.2539" fill="#FFFFFF" stroke="none" stroke-width="0"/>
<rect x="10.2971" y="4.8714" width="0.2539" height="0.2539" fill="#FFFFFF" stroke="none" stroke-width="0"/>
<rect x="11.4514" y="3.14" width="0.2539" height="0.2539" fill="#FFFFFF" stroke="none" stroke-width="0"/>
<rect x="11.74" y="3.14" width="0.2539" height="0.2539" fill="#FFFFFF" stroke="none" stroke-width="0"/>
<rect x="12.0286" y="3.14" width="0.2539" height="0.2539" fill="#FFFFFF" stroke="none" stroke-width="0"/>
<rect x="11.1629" y="3.4286" width="0.2539" height="0.2539" fill="#FFFFFF" stroke="none" stroke-width="0"/>
<rect x="12.3171" y="3.4286" width="0.2539" height="0.2539" fill="#FFFFFF" stroke="none" stroke-width="0"/>
<rect x="11.1629" y="3.7171" width="0.2539" height="0.2539" fill="#FFFFFF" stroke="none" stroke-width="0"/>
<rect x="12.3171" y="3.7171" width="0.2539" height="0.2539" fill="#FFFFFF" stroke="none" stroke-width="0"/>
<rect x="11.1629" y="4.0057" width="0.2539" height="0.2539" fill="#FFFFFF" stroke="none" stroke-width="0"/>
<rect x="11.4514" y="4.0057" width="0.2539" height="0.2539" fill="#FFFFFF" stroke="none" stroke-width="0"/>
<rect x="11.74" y="4.0057" width="0.2539" height="0.2539" fill="#FFFFFF" stroke="none" stroke-width="0"/>
<rect x="12.0286" y="4.0057" width="0.2539" height="0.2539" fill="#FFFFFF" stroke="none" stroke-width="0"/>
<rect x="12.3171" y="4.0057" width="0.2539" height="0.2539" fill="#FFFFFF" stroke="none" stroke-width="0"/>
<rect x="11.1629" y="4.2943" width="0.2539" height="0.2539" fill="#FFFFFF" stroke="none" stroke-width="0"/>
<rect x="12.3171" y="4.2943" width="0.2539" height="0.2539" fill="#FFFFFF" stroke="none" stroke-width="0"/>
<rect x="11.1629" y="4.5829" width="0.2539" height="0.2539" fill="#FFFFFF" stroke="none" stroke-width="0"/>
<rect x="12.3171" y="4.5829" width="0.2539" height="0.2539" fill="#FFFFFF" stroke="none" stroke-width="0"/>
<rect x="11.1629" y="4.8714" width="0.2539" height="0.2539" fill="#FFFFFF" stroke="none" stroke-width="0"/>
<rect x="12.3171" y="4.8714" width="0.2539" height="0.2539" fill="#FFFFFF" stroke="none" stroke-width="0"/>
<rect x="14.9143" y="3.14" width="0.2539" height="0.2539" fill="#FFFFFF" stroke="none" stroke-width="0"/>
<rect x="15.2029" y="3.14" width="0.2539" height="0.2539" fill="#FFFFFF" stroke="none" stroke-width="0"/>
<rect x="15.4914" y="3.14" width="0.2539" height="0.2539" fill="#FFFFFF" stroke="none" stroke-width="0"/>
<rect x="15.78" y="3.14" width="0.2539" height="0.2539" fill="#FFFFFF" stroke="none" stroke-width="0"/>
<rect x="14.6257" y="3.4286" width="0.2539" height="0.2539" fill="#FFFFFF" stroke="none" stroke-width="0"/>
<rect x="14.6257" y="3.7171" width="0.2539" height="0.2539" fill="#FFFFFF" stroke="none" stroke-width="0"/>
<rect x="14.9143" y="4.0057" width="0.2539" height="0.2539" fill="#FFFFFF" stroke="none" stroke-width="0"/>
<rect x="15.2029" y="4.0057" width="0.2539" height="0.2539" fill="#FFFFFF" stroke="none" stroke-width="0"/>
<rect x="15.4914" y="4.0057" width="0.2539" height="0.2539" fill="#FFFFFF" stroke="none" stroke-width="0"/>
<rect x="15.78" y="4.2943" width="0.2539" height="0.2539" fill="#FFFFFF" stroke="none" stroke-width="0"/>
<rect x="15.78" y="4.5829" width="0.2539" height="0.2539" fill="#FFFFFF" stroke="none" stroke-width="0"/>
<rect x="14.6257" y="4.8714" width="0.2539" height="0.2539" fill="#FFFFFF" stroke="none" stroke-width="0"/>
<rect x="14.9143" y="4.8714" width="0.2539" height="0.2539" fill="#FFFFFF" stroke="none" stroke-width="0"/>
<rect x="15.2029" y="4.8714" width="0.2539" height="0.2539" fill="#FFFFFF" stroke="none" stroke-width="0"/>
<rect x="15.4914" y="4.8714" width="0.2539" height="0.2539" fill="#FFFFFF" stroke="none" stroke-width="0"/>
<rect x="16.3571" y="3.14" width="0.2539" height="0.2539" fill="#FFFFFF" stroke="none" stroke-width="0"/>
<rect x="16.6457" y="3.14" width="0.2539" height="0.2539" fill="#FFFFFF" stroke="none" stroke-width="0"/>
<rect x="16.9343" y="3.14" width="0.2539" height="0.2539" fill="#FFFFFF" stroke="none" stroke-width="0"/>
<rect x="17.2229" y="3.14" width="0.2539" height="0.2539" fill="#FFFFFF" stroke="none" stroke-width="0"/>
<rect x="16.3571" y="3.4286" width="0.2539" height="0.2539" fill="#FFFFFF" stroke="none" stroke-width="0"/>
<rect x="17.5114" y="3.4286" width="0.2539" height="0.2539" fill="#FFFFFF" stroke="none" stroke-width="0"/>
<rect x="16.3571" y="3.7171" width="0.2539" height="0.2539" fill="#FFFFFF" stroke="none" stroke-width="0"/>
<rect x="17.5114" y="3.7171" width="0.2539" height="0.2539" fill="#FFFFFF" stroke="none" stroke-width="0"/>
<rect x="16.3571" y="4.0057" width="0.2539" height="0.2539" fill="#FFFFFF" stroke="none" stroke-width="0"/>
<rect x="17.5114" y="4.0057" width="0.2539" height="0.2539" fill="#FFFFFF" stroke="none" stroke-width="0"/>
<rect x="16.3571" y="4.2943" width="0.2539" height="0.2539" fill="#FFFFFF" stroke="none" stroke-width="0"/>
<rect x="17.5114" y="4.2943" width="0.2539" height="0.2539" fill="#FFFFFF" stroke="none" stroke-width="0"/>
<rect x="16.3571" y="4.5829" width="0.2539" height="0.2539" fill="#FFFFFF" stroke="none" stroke-width="0"/>
<rect x="17.5114" y="4.5829" width="0.2539" height="0.2539" fill="#FFFFFF" stroke="none" stroke-width="0"/>
<rect x="16.3571" y="4.8714" width="0.2539" height="0.2539" fill="#FFFFFF" stroke="none" stroke-width="0"/>
<rect x="16.6457" y="4.8714" width="0.2539" height="0.2539" fill="#FFFFFF" stroke="none" stroke-width="0"/>
<rect x="16.9343" y="4.8714" width="0.2539" height="0.2539" fill="#FFFFFF" stroke="none" stroke-width="0"/>
<rect x="17.2229" y="4.8714" width="0.2539" height="0.2539" fill="#FFFFFF" stroke="none" stroke-width="0"/>
</g>
</g>
</svg>
